<?xml version="1.0" encoding="utf-8"?>
<!-- Generator: Adobe Illustrator 24.1.2, SVG Export Plug-In . SVG Version: 6.00 Build 0)  -->
<svg version="1.1" id="Layer_1" xmlns="http://www.w3.org/2000/svg" xmlns:xlink="http://www.w3.org/1999/xlink" x="0px" y="0px"
	 viewBox="0 0 1920 1080" style="enable-background:new 0 0 1920 1080;" xml:space="preserve">
<style type="text/css">
	.st0{fill:#23272A;}
	.st1{fill:#FFFFFF;stroke:#000000;stroke-width:4;stroke-miterlimit:10;}
	.st2{fill:#44B37F;stroke:#000000;stroke-width:4;stroke-miterlimit:10;}
	.st3{fill:#4D4D4D;}
	.st4{fill:#7B3D06;}
	.st5{fill:#C1272D;stroke:#000000;stroke-width:4;stroke-miterlimit:10;}
	.st6{fill:#F2F2F2;}
	.st7{font-family:'ArialMT';}
	.st8{font-size:53.5867px;}
	.st9{letter-spacing:4.8;}
	.st10{fill:#808080;}
	.st11{font-size:30.621px;}
	.st12{letter-spacing:2.9;}
	.st13{fill:#FFFFFF;}
	.st14{letter-spacing:5.7;}
	.st15{letter-spacing:6.7;}
	.st16{letter-spacing:-1;}
	.st17{font-size:94.9251px;}
	.st18{letter-spacing:2.8;}
	.st19{font-size:33.207px;}
</style>
<image style="overflow:visible;" width="256" height="256" xlink:href="https://cdn.discordapp.com/avatars/417513749453209601/79a328543dd099c1dc9e026c1dc8a458.png?size=256"  transform="matrix(1 0 0 1 303 410)">
</image>
<g>
	<path class="st0" d="M245,324.1v431.8h1430V324.1H245z M431,664c-70.8,0-128-58.2-126.3-129.4c1.6-67,56.2-121.6,123.2-123.2
		c71.1-1.7,129.4,55.5,129.4,126.3c0,17.1-3.4,33.5-9.6,48.4c-6.1-3.5-13.4-5.2-21-4.6c-17.7,1.4-32.1,15.8-33.6,33.5
		c-0.9,10.4,2.6,20.1,8.9,27.2C481.8,656,457.4,664,431,664z M1601.1,652.9c-5,5-11.9,8.1-19.5,8.1l-913.4,0
		c-14,0-26.3-10.2-28-24.1c-1.1-9,2.1-17.2,7.9-22.9c5-5,11.9-8.1,19.5-8.1h914c10.7,0,20,6.1,24.5,15c1.9,3.8,3,8,3,12.6
		c0,4.5-1.1,8.8-3,12.5C1604.8,648.5,1603.1,650.8,1601.1,652.9z"/>
	<path class="st1" d="M547.7,586.1c-9.5,22.9-25.5,42.3-45.7,56.1c-5.6-6.4-9-14.9-9-24.1c0-20.3,16.5-36.7,36.7-36.7
		C536.3,581.3,542.4,583,547.7,586.1z"/>
	<path class="st1" d="M431,408.3c-71.5,0-129.4,57.9-129.4,129.4c0,71.5,57.9,129.4,129.4,129.4c27.2,0,52.3-8.4,73.2-22.7
		c20.4-14,36.5-33.7,46.2-56.7c6.4-15.4,10-32.3,10-50C560.4,466.2,502.5,408.3,431,408.3z M547.7,586.1c-5.3-3-11.5-4.7-18-4.7
		c-20.3,0-36.7,16.5-36.7,36.7c0,9.2,3.4,17.6,9,24.1C481.8,656,457.4,664,431,664c-69.8,0-126.3-56.6-126.3-126.3
		S361.3,411.4,431,411.4s126.3,56.6,126.3,126.3C557.3,554.8,553.9,571.2,547.7,586.1z"/>
	<path class="st2" d="M566.5,618.1c0,20.3-16.5,36.7-36.7,36.7c-10,0-19-4-25.6-10.4c-0.8-0.7-1.5-1.5-2.1-2.3
		c-5.6-6.4-9-14.9-9-24.1c0-20.3,16.5-36.7,36.7-36.7c6.5,0,12.7,1.7,18,4.7c0.9,0.5,1.8,1,2.6,1.6
		C560.1,594.3,566.5,605.4,566.5,618.1z"/>
	<path class="st3" d="M1609.2,633.4c0,4.5-1.1,8.8-3,12.5c-1.2,1.8-2.6,3.5-4.3,5c-5,4.5-11.9,7.3-19.5,7.3H669.1
		c-15.2,0-27.5-11.1-27.5-24.8c0-6.8,3.1-13,8.1-17.5c5-4.5,11.9-7.3,19.5-7.3h913.3c10.1,0,19,4.9,23.7,12.2
		C1608.1,624.6,1609.2,628.9,1609.2,633.4z"/>
	<path class="st4" d="M906.2,654.8H654c-7.7,0-14-6.3-14-14V626c0-7.7,6.3-14,14-14h252.2c7.7,0,14,6.3,14,14v14.9
		C920.2,648.6,913.9,654.8,906.2,654.8z"/>
	<path class="st5" d="M1606.1,645.9c-1.3,2.6-3,4.9-5,7c-5,5-11.9,8.1-19.5,8.1h-914c-15.2,0-27.6-12.3-27.6-27.6
		c0-7.6,3.1-14.5,8.1-19.5c5-5,11.9-8.1,19.5-8.1h914c10.7,0,20,6.1,24.5,15c-4.8-7.3-13.6-12.2-23.8-12.2h-914
		c-7.6,0-14.5,2.8-19.5,7.3c-5,4.5-8.1,10.7-8.1,17.5c0,13.7,12.3,24.8,27.6,24.8h914c7.6,0,14.5-2.8,19.5-7.3
		C1603.5,649.4,1605,647.8,1606.1,645.9z"/>
	<path class="st1" d="M1606.1,645.9c1.9-3.8,3-8,3-12.5c0-4.5-1.1-8.8-3-12.6c2.4,3.7,3.8,8,3.8,12.6
		C1609.9,638,1608.6,642.3,1606.1,645.9z"/>
	<text transform="matrix(1.0502 0 0 1 662.9756 580.3271)"><tspan x="0" y="0" class="st6 st7 st8 st9">Obuya</tspan><tspan x="183.9" y="0" class="st7 st8 st9"> </tspan><tspan x="204" y="0" class="st10 st7 st11 st12">#1105</tspan></text>
	<text transform="matrix(1.0502 0 0 1 1264.8936 581.8506)"><tspan x="0" y="0" class="st10 st7 st11 st12">     </tspan><tspan x="57.4" y="0" class="st13 st7 st11 st12">2.15</tspan><tspan x="129.7" y="0" class="st13 st7 st11 st14">K</tspan><tspan x="156.6" y="0" class="st10 st7 st11 st15">/</tspan><tspan x="171.9" y="0" class="st10 st7 st11 st12">6.82K</tspan><tspan x="267.8" y="0" class="st10 st7 st11 st16"> XP</tspan></text>
	<text transform="matrix(1.0725 0 0 1 1070.3525 483.1987)"><tspan x="0" y="0" class="st0 st7 st17 st18">11</tspan><tspan x="113" y="0" class="st13 st7 st19">RANK </tspan><tspan x="214.6" y="0" class="st13 st7 st17 st18">#1</tspan><tspan x="327.6" y="0" class="st4 st7 st19">LEVEL </tspan><tspan x="440.4" y="0" class="st4 st7 st17">9</tspan></text>
</g>
<rect x="-88" y="633" style="fill:none;" width="8" height="6"/>
</svg>
